<svg width="263" height="25" viewBox="0 0 263 25" fill="none" xmlns="http://www.w3.org/2000/svg">
<path d="M5.66667 12.032L2.37067 6.576H1.20267L5.36267 13.52V18H6.41867V13.52L10.5787 6.576H9.41067L6.11467 12.032H5.66667ZM16.5732 6.368C13.1492 6.368 11.3412 9.024 11.3412 12.288C11.3412 15.552 13.1492 18.208 16.5732 18.208C19.9812 18.208 21.8052 15.552 21.8052 12.288C21.8052 9.024 19.9812 6.368 16.5732 6.368ZM16.5732 17.248C13.6292 17.248 12.3972 14.784 12.3972 12.288C12.3972 9.792 13.6292 7.328 16.5732 7.328C19.5172 7.328 20.7492 9.792 20.7492 12.288C20.7492 14.784 19.5172 17.248 16.5732 17.248ZM31.8944 6.576V13.984C31.8944 15.952 30.7424 17.248 28.5664 17.248C26.3904 17.248 25.2384 15.952 25.2384 13.984V6.576H24.1824V13.968C24.1824 16.608 25.7344 18.208 28.5664 18.208C31.3984 18.208 32.9504 16.608 32.9504 13.968V6.576H31.8944ZM43.4852 6.576H34.7332V7.504H38.5892V18H39.6452V7.504H43.4852V6.576ZM52.9725 6.576V13.984C52.9725 15.952 51.8205 17.248 49.6445 17.248C47.4685 17.248 46.3165 15.952 46.3165 13.984V6.576H45.2605V13.968C45.2605 16.608 46.8125 18.208 49.6445 18.208C52.4765 18.208 54.0285 16.608 54.0285 13.968V6.576H52.9725ZM64.1313 11.776C65.0273 11.28 65.4433 10.448 65.4433 9.424C65.4433 7.872 64.2273 6.576 61.8433 6.576H57.0113V18H61.9553C64.5153 18 65.7953 16.608 65.7953 14.816C65.7953 13.616 65.1713 12.592 64.1313 12.096V11.776ZM58.0673 7.536H61.8753C63.1393 7.536 64.3873 8.064 64.3873 9.488C64.3873 11.088 63.2993 11.536 61.8913 11.536H58.0673V7.536ZM58.0673 17.04V12.496H61.9713C63.4593 12.496 64.7393 13.056 64.7393 14.72C64.7393 16.48 63.4113 17.04 61.9553 17.04H58.0673ZM69.1454 17.04V12.528H74.6014V11.568H69.1454V7.536H75.8494V6.576H68.0894V18H76.1214V17.04H69.1454Z" fill="#242424"/>
<path fill-rule="evenodd" clip-rule="evenodd" d="M259 12.4766L258.275 13.2014L252.477 19L251.774 18.2971L257.094 12.9765L238 12.9765L238 11.9765L257.05 11.9765L251.799 6.72483L252.523 6L258.297 11.7737L259 12.4766Z" fill="#242424"/>
</svg>
