<svg width="154" height="32" viewBox="0 0 154 32" fill="none" xmlns="http://www.w3.org/2000/svg">
<path d="M35.144 9.368C31.72 9.368 29.912 12.024 29.912 15.288C29.912 18.552 31.72 21.208 35.144 21.208C38.552 21.208 40.376 18.552 40.376 15.288C40.376 12.024 38.552 9.368 35.144 9.368ZM35.144 20.248C32.2 20.248 30.968 17.784 30.968 15.288C30.968 12.792 32.2 10.328 35.144 10.328C38.088 10.328 39.32 12.792 39.32 15.288C39.32 17.784 38.088 20.248 35.144 20.248ZM55.1424 17.912C54.7104 19.32 53.6064 20.248 51.8624 20.248C48.9504 20.248 47.7024 17.848 47.7024 15.288C47.7024 12.744 48.9664 10.328 51.8784 10.328C53.6224 10.328 54.5344 11.096 55.0304 12.44H56.1504C55.6864 10.52 54.1024 9.368 51.8784 9.368C48.5024 9.368 46.6464 11.944 46.6464 15.288C46.6464 18.632 48.5024 21.208 51.8624 21.208C54.2784 21.208 55.7984 19.848 56.2784 17.912H55.1424ZM58.5978 9.576V21H59.6538V10.536H66.4698V21H67.5258V9.576H58.5978ZM71.5913 20.04V15.528H77.0473V14.568H71.5913V10.536H78.2953V9.576H70.5353V21H78.5673V20.04H71.5913ZM80.879 21H81.935V15.576H85.679L88.191 21H89.343L86.639 15.128L89.199 9.576H88.047L85.679 14.616H81.935V9.576H80.879V21ZM98.9779 9.576H90.2259V10.504H94.0819V21H95.1379V10.504H98.9779V9.576ZM104.82 9.576H102.9L98.8204 21H99.9244L101.22 17.304H106.484L107.78 21H108.916L104.82 9.576ZM103.54 10.696H104.164L106.148 16.344H101.556L103.54 10.696ZM110.754 21H111.81V15.576H115.554L118.066 21H119.218L116.514 15.128L119.074 9.576H117.922L115.554 14.616H111.81V9.576H110.754V21ZM120.441 19.944V21H120.713C123.065 21 124.009 19.528 124.009 13.864V10.536H129.097V21H130.153V9.576H122.985V13.864C122.985 18.952 122.233 19.944 120.713 19.944H120.441ZM134.216 20.04V15.528H139.672V14.568H134.216V10.536H140.92V9.576H133.16V21H141.192V20.04H134.216Z" fill="#242424"/>
<path fill-rule="evenodd" clip-rule="evenodd" d="M21 15.4766L20.2752 16.2014L14.4766 22L13.7737 21.2971L19.0944 15.9765L-3.63036e-07 15.9765L-3.10999e-07 14.9765L19.0502 14.9765L13.7986 9.72483L14.5234 9L20.2971 14.7737L21 15.4766Z" fill="#242424"/>
<line x1="0.5" y1="31" x2="0.500001" y2="-2.18557e-08" stroke="#242424"/>
<line y1="31.5" x2="154" y2="31.5" stroke="#242424"/>
</svg>
