<svg width="154" height="32" viewBox="0 0 154 32" fill="none" xmlns="http://www.w3.org/2000/svg">
<path d="M31.56 14.344V10.536H38.12V9.576H30.504V21H35.192C37.624 21 38.952 19.736 38.952 17.672C38.952 15.608 37.624 14.344 35.192 14.344H31.56ZM31.56 20.04V15.304H35.016C37.144 15.304 37.896 16.232 37.896 17.672C37.896 19.112 37.144 20.04 35.016 20.04H31.56ZM41.3165 9.576V21H43.1725L49.0285 10.696H49.3485V21H50.4045V9.576H48.5485L42.7085 19.88H42.3725V9.576H41.3165ZM52.0663 19.944V21H52.3383C54.6903 21 55.6343 19.528 55.6343 13.864V10.536H60.7222V21H61.7783V9.576H54.6103V13.864C54.6103 18.952 53.8583 19.944 52.3383 19.944H52.0663ZM65.8413 20.04V15.528H71.2973V14.568H65.8413V10.536H72.5453V9.576H64.7853V21H72.8173V20.04H65.8413ZM82.681 9.576H73.929V10.504H77.785V21H78.841V10.504H82.681V9.576ZM85.5444 20.04V15.096H88.7124C90.9364 15.096 91.7204 16.072 91.7204 17.56C91.7204 19.064 90.9364 20.04 88.7124 20.04H85.5444ZM88.9044 21C91.4004 21 92.7764 19.704 92.7764 17.576C92.7764 15.416 91.4004 14.136 88.9044 14.136H85.5444V9.576H84.4884V21H88.9044ZM94.4244 9.576V21H95.4804V9.576H94.4244Z" fill="#242424"/>
<path fill-rule="evenodd" clip-rule="evenodd" d="M21 15.4766L20.2752 16.2014L14.4766 22L13.7737 21.2971L19.0944 15.9765L-3.63036e-07 15.9765L-3.10999e-07 14.9765L19.0502 14.9765L13.7986 9.72483L14.5234 9L20.2971 14.7737L21 15.4766Z" fill="#242424"/>
<line x1="0.5" y1="31" x2="0.500001" y2="-2.18557e-08" stroke="#242424"/>
<line y1="31.5" x2="154" y2="31.5" stroke="#242424"/>
</svg>
